HIERARCHY
ROOT joint_0
{
	OFFSET 0.000000 0.000000 0.000000
	CHANNELS 6 Xposition Yposition Zposition Zrotation Yrotation Xrotation 
	JOINT joint_1
	{
		OFFSET 4.520508 -1.939880 86.268921
		CHANNELS 3 Zrotation Yrotation Xrotation
		JOINT joint_2
		{
			OFFSET -4.459717 -0.438538 78.934082
			CHANNELS 3 Zrotation Yrotation Xrotation
			JOINT joint_3
			{
				OFFSET -5.197754 -0.781128 78.796997
				CHANNELS 3 Zrotation Yrotation Xrotation
				JOINT joint_4
				{
					OFFSET 2.952026 -3.710571 109.812988
					CHANNELS 3 Zrotation Yrotation Xrotation
					JOINT joint_5
					{
						OFFSET 24.716797 -5.488037 87.903931
						CHANNELS 3 Zrotation Yrotation Xrotation
						End Site
						{
							OFFSET 0.000000 0.000000 0.000000
						}
					}
				}
				JOINT joint_6
				{
					OFFSET -3.154419 -25.484680 60.934937
					CHANNELS 3 Zrotation Yrotation Xrotation
					JOINT joint_7
					{
						OFFSET -28.997192 -144.472229 -32.671997
						CHANNELS 3 Zrotation Yrotation Xrotation
						JOINT joint_8
						{
							OFFSET 19.867676 -18.614380 -249.897949
							CHANNELS 3 Zrotation Yrotation Xrotation
							JOINT joint_9
							{
								OFFSET 5.281982 -13.816650 -264.993042
								CHANNELS 3 Zrotation Yrotation Xrotation
								End Site
								{
									OFFSET 0.000000 0.000000 0.000000
								}
							}
						}
					}
				}
				JOINT joint_10
				{
					OFFSET 6.494995 21.336792 62.257935
					CHANNELS 3 Zrotation Yrotation Xrotation
					JOINT joint_11
					{
						OFFSET 31.106567 145.200745 -27.007935
						CHANNELS 3 Zrotation Yrotation Xrotation
						JOINT joint_12
						{
							OFFSET 29.119141 24.684326 -248.460083
							CHANNELS 3 Zrotation Yrotation Xrotation
							JOINT joint_13
							{
								OFFSET 21.220093 31.248413 -262.703979
								CHANNELS 3 Zrotation Yrotation Xrotation
								End Site
								{
									OFFSET 0.000000 0.000000 0.000000
								}
							}
						}
					}
				}
			}
		}
	}
	JOINT joint_14
	{
		OFFSET -15.458496 -88.861694 -109.593018
		CHANNELS 3 Zrotation Yrotation Xrotation
		JOINT joint_15
		{
			OFFSET -6.193359 6.837952 -506.710999
			CHANNELS 3 Zrotation Yrotation Xrotation
			JOINT joint_16
			{
				OFFSET -35.096680 13.289795 -435.677025
				CHANNELS 3 Zrotation Yrotation Xrotation
				JOINT joint_17
				{
					OFFSET 158.491211 -33.916565 -71.771002
					CHANNELS 3 Zrotation Yrotation Xrotation
					End Site
					{
						OFFSET 0.000000 0.000000 0.000000
					}
				}
			}
		}
	}
	JOINT joint_18
	{
		OFFSET 23.116943 86.574158 -110.082031
		CHANNELS 3 Zrotation Yrotation Xrotation
		JOINT joint_19
		{
			OFFSET -6.125854 -0.283569 -506.757019
			CHANNELS 3 Zrotation Yrotation Xrotation
			JOINT joint_20
			{
				OFFSET -63.240234 11.589966 -432.537994
				CHANNELS 3 Zrotation Yrotation Xrotation
				JOINT joint_21
				{
					OFFSET 156.074219 -41.487305 -73.077999
					CHANNELS 3 Zrotation Yrotation Xrotation
					End Site
					{
						OFFSET 0.000000 0.000000 0.000000
					}
				}
			}
		}
	}
}
MOTION
Frames: 13
Frame Time: 0.016667
-1318.478394 834.926392 1140.965942 16.514530 0.475854 0.512736 -0.298343 -1.103174 -0.177916 -0.272135 0.224713 0.017885 -0.278282 -0.193227 -0.019085 -0.193798 -0.188373 0.651276 0.000000 0.000000 0.000000 -0.074304 0.612987 -0.844225 0.090576 0.234668 0.885666 -0.003383 -0.070343 -0.478367 0.000000 0.000000 0.000000 0.455802 0.211477 0.556558 -0.128676 0.446939 -1.002467 0.176418 0.335864 1.639549 0.000000 0.000000 0.000000 -1.106245 1.756041 -2.753885 -1.172310 -4.613996 -1.221793 -0.991850 3.197992 0.236025 0.000000 0.000000 0.000000 -1.768124 0.896708 1.448966 -1.713825 -3.009263 -1.153943 -1.645329 1.456414 -0.381722 0.000000 0.000000 0.000000 
-1318.727539 834.961487 1140.990967 16.514329 0.459518 0.511123 -0.294984 -1.097343 -0.159981 -0.269988 0.220382 0.013772 -0.275563 -0.188547 -0.015674 -0.190205 -0.174812 0.641560 0.000000 0.000000 0.000000 -0.065703 0.621961 -0.842232 0.090853 0.243593 0.897292 -0.003183 -0.071881 -0.474731 0.000000 0.000000 0.000000 0.469444 0.222129 0.543179 -0.127942 0.451700 -0.999232 0.178466 0.346551 1.646852 0.000000 0.000000 0.000000 -1.098424 1.770542 -2.753854 -1.164865 -4.637436 -1.228131 -0.983350 3.224692 0.245631 0.000000 0.000000 0.000000 -1.766908 0.897537 1.440774 -1.713002 -3.001860 -1.148271 -1.644383 1.466643 -0.378575 0.000000 0.000000 0.000000 
-1318.974609 834.993042 1141.010986 16.513209 0.442155 0.508538 -0.292231 -1.090760 -0.145008 -0.268169 0.219342 0.011525 -0.273500 -0.186783 -0.014665 -0.187174 -0.161091 0.633842 0.000000 0.000000 0.000000 -0.057037 0.632227 -0.839561 0.090741 0.254574 0.906239 -0.003256 -0.069644 -0.470188 0.000000 0.000000 0.000000 0.484699 0.230984 0.532154 -0.127510 0.455107 -0.997413 0.179911 0.353786 1.652541 0.000000 0.000000 0.000000 -1.090681 1.782388 -2.754186 -1.157412 -4.652646 -1.231328 -0.975180 3.246501 0.254034 0.000000 0.000000 0.000000 -1.765412 0.899261 1.433630 -1.711865 -2.993210 -1.142029 -1.643115 1.474933 -0.375793 0.000000 0.000000 0.000000 
-1319.222656 835.017029 1141.022949 16.510245 0.422227 0.504801 -0.288535 -1.079468 -0.134228 -0.265207 0.216448 0.010314 -0.270359 -0.184014 -0.014042 -0.184722 -0.148843 0.627843 0.000000 0.000000 0.000000 -0.052496 0.643315 -0.836535 0.090245 0.266239 0.911999 -0.003723 -0.061978 -0.464391 0.000000 0.000000 0.000000 0.495727 0.237162 0.523261 -0.127406 0.457249 -0.996735 0.180610 0.356418 1.656918 0.000000 0.000000 0.000000 -1.084173 1.791401 -2.755128 -1.151079 -4.656000 -1.230005 -0.968599 3.260974 0.260137 0.000000 0.000000 0.000000 -1.763490 0.902826 1.427848 -1.710252 -2.981931 -1.135356 -1.641452 1.480001 -0.373686 0.000000 0.000000 0.000000 
-1319.467651 835.037659 1141.031006 16.506441 0.401449 0.500045 -0.285167 -1.067720 -0.126437 -0.262340 0.216066 0.010192 -0.267442 -0.182808 -0.013809 -0.182313 -0.137366 0.621815 0.000000 0.000000 0.000000 -0.049176 0.655549 -0.833720 0.089331 0.279459 0.914580 -0.004488 -0.050167 -0.457507 0.000000 0.000000 0.000000 0.506952 0.241625 0.515176 -0.127591 0.457947 -0.996990 0.180579 0.354781 1.659560 0.000000 0.000000 0.000000 -1.077722 1.797549 -2.756355 -1.144718 -4.650900 -1.225569 -0.962344 3.270688 0.265063 0.000000 0.000000 0.000000 -1.761393 0.907178 1.423300 -1.708417 -2.969547 -1.128410 -1.639588 1.483512 -0.371901 0.000000 0.000000 0.000000 
-1319.711670 835.054504 1141.037964 16.504716 0.382546 0.494395 -0.281976 -1.054190 -0.119573 -0.259689 0.213457 0.009511 -0.264656 -0.180380 -0.013246 -0.180268 -0.126161 0.617021 0.000000 0.000000 0.000000 -0.047320 0.668672 -0.832943 0.088317 0.293123 0.915741 -0.005281 -0.038228 -0.451337 0.000000 0.000000 0.000000 0.515187 0.243060 0.506923 -0.128190 0.456439 -0.998995 0.180324 0.351448 1.662431 0.000000 0.000000 0.000000 -1.072059 1.800449 -2.755973 -1.139094 -4.642849 -1.221812 -0.957045 3.279029 0.269261 0.000000 0.000000 0.000000 -1.759826 0.906717 1.420142 -1.707133 -2.951674 -1.121676 -1.638511 1.484227 -0.371228 0.000000 0.000000 0.000000 
-1319.958008 835.065430 1141.045044 16.507527 0.367885 0.487883 -0.280597 -1.041034 -0.113598 -0.258823 0.211918 0.008644 -0.263651 -0.179607 -0.012403 -0.178598 -0.115789 0.613362 0.000000 0.000000 0.000000 -0.042959 0.682743 -0.835070 0.087387 0.307701 0.916812 -0.006114 -0.026441 -0.447627 0.000000 0.000000 0.000000 0.523795 0.241299 0.498062 -0.129382 0.451964 -1.003441 0.179993 0.346779 1.666961 0.000000 0.000000 0.000000 -1.067825 1.797961 -2.753579 -1.134829 -4.632662 -1.219166 -0.953274 3.286472 0.272570 0.000000 0.000000 0.000000 -1.759265 0.896391 1.419015 -1.706903 -2.924260 -1.116280 -1.639026 1.481182 -0.372303 0.000000 0.000000 0.000000 
-1320.203613 835.073486 1141.052002 16.512617 0.355139 0.480269 -0.280091 -1.026879 -0.107355 -0.258980 0.209300 0.006044 -0.263474 -0.176927 -0.010613 -0.177219 -0.107471 0.610285 0.000000 0.000000 0.000000 -0.038297 0.696679 -0.838753 0.086225 0.322478 0.915256 -0.006990 -0.014137 -0.443919 0.000000 0.000000 0.000000 0.531965 0.236372 0.488315 -0.131027 0.444430 -1.009288 0.179339 0.339857 1.671489 0.000000 0.000000 0.000000 -1.064616 1.792097 -2.749426 -1.131539 -4.619336 -1.216942 -0.950683 3.292673 0.275075 0.000000 0.000000 0.000000 -1.759210 0.881178 1.419538 -1.707183 -2.891337 -1.111309 -1.640312 1.475467 -0.374449 0.000000 0.000000 0.000000 
-1320.438721 835.084534 1141.057983 16.516418 0.342297 0.472933 -0.279994 -1.012330 -0.103854 -0.259336 0.206468 0.004583 -0.263599 -0.174706 -0.009280 -0.175277 -0.097500 0.605570 0.000000 0.000000 0.000000 -0.034128 0.710500 -0.842645 0.084744 0.337818 0.909853 -0.007855 -0.002106 -0.440597 0.000000 0.000000 0.000000 0.539145 0.231089 0.479085 -0.132844 0.437074 -1.016426 0.178199 0.330274 1.674515 0.000000 0.000000 0.000000 -1.060860 1.786216 -2.745699 -1.127674 -4.604494 -1.214734 -0.947646 3.296952 0.277368 0.000000 0.000000 0.000000 -1.758924 0.867085 1.418011 -1.707313 -2.858610 -1.102896 -1.640988 1.468226 -0.376715 0.000000 0.000000 0.000000 
-1320.661011 835.102295 1141.062988 16.518327 0.328229 0.465421 -0.279998 -0.997516 -0.101476 -0.259650 0.204692 0.004362 -0.263852 -0.173151 -0.009178 -0.172689 -0.085953 0.598895 0.000000 0.000000 0.000000 -0.032231 0.723817 -0.846417 0.082764 0.353406 0.898766 -0.008743 0.010293 -0.436878 0.000000 0.000000 0.000000 0.545435 0.225375 0.470248 -0.134888 0.429891 -1.025438 0.176450 0.317525 1.675329 0.000000 0.000000 0.000000 -1.056338 1.781711 -2.742131 -1.123045 -4.588101 -1.212449 -0.943984 3.299330 0.279537 0.000000 0.000000 0.000000 -1.758070 0.855842 1.413841 -1.706973 -2.826346 -1.089484 -1.640538 1.458997 -0.378983 0.000000 0.000000 0.000000 
-1320.873047 835.124084 1141.066040 16.518550 0.314004 0.457865 -0.280726 -0.982149 -0.100329 -0.260626 0.201925 0.004249 -0.264781 -0.170481 -0.009454 -0.169484 -0.074267 0.590053 0.000000 0.000000 0.000000 -0.028976 0.736492 -0.850659 0.080431 0.369429 0.883741 -0.009592 0.022199 -0.433017 0.000000 0.000000 0.000000 0.552808 0.218914 0.462357 -0.137241 0.422363 -1.036606 0.174220 0.302133 1.674711 0.000000 0.000000 0.000000 -1.051343 1.777187 -2.738741 -1.117919 -4.570212 -1.210020 -0.939946 3.299583 0.281417 0.000000 0.000000 0.000000 -1.756587 0.845760 1.408132 -1.706065 -2.794048 -1.073200 -1.639162 1.447586 -0.381398 0.000000 0.000000 0.000000 
-1321.082153 835.149780 1141.067993 16.515646 0.300061 0.451157 -0.281044 -0.965059 -0.101737 -0.261067 0.199193 0.004401 -0.265184 -0.168186 -0.009545 -0.166445 -0.062293 0.581857 0.000000 0.000000 0.000000 -0.029559 0.746662 -0.854664 0.078062 0.382699 0.865959 -0.010551 0.035256 -0.430055 0.000000 0.000000 0.000000 0.558539 0.212125 0.453793 -0.139503 0.414468 -1.046816 0.171730 0.285653 1.672680 0.000000 0.000000 0.000000 -1.044985 1.772389 -2.736564 -1.111424 -4.552543 -1.207413 -0.934556 3.299061 0.283745 0.000000 0.000000 0.000000 -1.754614 0.837946 1.400170 -1.704724 -2.765911 -1.054417 -1.636859 1.437193 -0.383106 0.000000 0.000000 0.000000 
-1321.293091 835.182251 1141.067993 16.508627 0.287086 0.445752 -0.281498 -0.944759 -0.107240 -0.261299 0.193648 0.007983 -0.265610 -0.163376 -0.010657 -0.162777 -0.050802 0.571301 0.000000 0.000000 0.000000 -0.030510 0.752401 -0.858581 0.075723 0.392128 0.844851 -0.011786 0.051336 -0.429040 0.000000 0.000000 0.000000 0.566089 0.204328 0.444395 -0.141747 0.404874 -1.056159 0.168800 0.267339 1.668146 0.000000 0.000000 0.000000 -1.037030 1.766512 -2.736198 -1.103309 -4.535783 -1.205017 -0.927550 3.298426 0.286782 0.000000 0.000000 0.000000 -1.751508 0.831711 1.388074 -1.702391 -2.742146 -1.031030 -1.632816 1.426649 -0.384037 0.000000 0.000000 0.000000 
